<mxfile host="Electron" agent="Mozilla/5.0 (X11; Linux x86_64) AppleWebKit/537.36 (KHTML, like Gecko) draw.io/24.7.17 Chrome/128.0.6613.36 Electron/32.0.1 Safari/537.36" version="24.7.17">
  <diagram name="Page-1" id="HVE41rP1crm8Y__qE7sF">
    <mxGraphModel dx="1672" dy="977" grid="1" gridSize="10" guides="1" tooltips="1" connect="1" arrows="1" fold="1" page="1" pageScale="1" pageWidth="850" pageHeight="1100" math="0" shadow="0">
      <root>
        <mxCell id="0" />
        <mxCell id="1" parent="0" />
        <mxCell id="E2EhYn8FWbv1Ye52zciG-1" value="" style="verticalLabelPosition=bottom;shadow=0;dashed=0;align=center;html=1;verticalAlign=top;shape=mxgraph.electrical.iec_logic_gates.or;" vertex="1" parent="1">
          <mxGeometry x="350" y="200" width="60" height="80" as="geometry" />
        </mxCell>
        <mxCell id="E2EhYn8FWbv1Ye52zciG-2" value="A" style="pointerEvents=1;verticalLabelPosition=bottom;shadow=0;dashed=0;align=center;html=1;verticalAlign=top;shape=mxgraph.electrical.plc_ladder.contact;" vertex="1" parent="1">
          <mxGeometry x="220" y="370" width="50" height="25" as="geometry" />
        </mxCell>
        <mxCell id="E2EhYn8FWbv1Ye52zciG-3" value="B" style="pointerEvents=1;verticalLabelPosition=bottom;shadow=0;dashed=0;align=center;html=1;verticalAlign=top;shape=mxgraph.electrical.plc_ladder.contact;" vertex="1" parent="1">
          <mxGeometry x="220" y="430" width="50" height="25" as="geometry" />
        </mxCell>
      </root>
    </mxGraphModel>
  </diagram>
</mxfile>
